<svg width="20" height="20" viewBox="0 0 20 20" fill="none" xmlns="http://www.w3.org/2000/svg">
<g clip-path="url(#clip0_3375_31361)">
<path d="M16 0H4C1.79086 0 0 1.79086 0 4V16C0 18.2091 1.79086 20 4 20H16C18.2091 20 20 18.2091 20 16V4C20 1.79086 18.2091 0 16 0Z" fill="#F3FFF3"/>
<path d="M13.3659 6.4C13.0439 6.4 12.7683 6.2825 12.539 6.0475C12.3098 5.8125 12.1951 5.53 12.1951 5.2C12.1951 4.87 12.3098 4.5875 12.539 4.3525C12.7683 4.1175 13.0439 4 13.3659 4C13.6878 4 13.9634 4.1175 14.1927 4.3525C14.422 4.5875 14.5366 4.87 14.5366 5.2C14.5366 5.53 14.422 5.8125 14.1927 6.0475C13.9634 6.2825 13.6878 6.4 13.3659 6.4ZM12.7805 16V11.2C12.7805 10.8 12.6805 10.44 12.4805 10.12C12.2805 9.8 12.0244 9.55 11.7122 9.37L12.2244 7.825C12.3024 7.575 12.4463 7.375 12.6561 7.225C12.8659 7.075 13.1024 7 13.3659 7C13.6293 7 13.8659 7.075 14.0756 7.225C14.2854 7.375 14.4293 7.575 14.5073 7.825L16 12.4H14.5366V16H12.7805ZM10.1463 9.7C9.90244 9.7 9.69512 9.6125 9.52439 9.4375C9.35366 9.2625 9.26829 9.05 9.26829 8.8C9.26829 8.55 9.35366 8.3375 9.52439 8.1625C9.69512 7.9875 9.90244 7.9 10.1463 7.9C10.3902 7.9 10.5976 7.9875 10.7683 8.1625C10.939 8.3375 11.0244 8.55 11.0244 8.8C11.0244 9.05 10.939 9.2625 10.7683 9.4375C10.5976 9.6125 10.3902 9.7 10.1463 9.7ZM6.04878 6.4C5.72683 6.4 5.45122 6.2825 5.22195 6.0475C4.99268 5.8125 4.87805 5.53 4.87805 5.2C4.87805 4.87 4.99268 4.5875 5.22195 4.3525C5.45122 4.1175 5.72683 4 6.04878 4C6.37073 4 6.64634 4.1175 6.87561 4.3525C7.10488 4.5875 7.21951 4.87 7.21951 5.2C7.21951 5.53 7.10488 5.8125 6.87561 6.0475C6.64634 6.2825 6.37073 6.4 6.04878 6.4ZM4.87805 16V11.8H4V8.2C4 7.87 4.11463 7.5875 4.3439 7.3525C4.57317 7.1175 4.84878 7 5.17073 7H6.92683C7.24878 7 7.52439 7.1175 7.75366 7.3525C7.98293 7.5875 8.09756 7.87 8.09756 8.2V11.8H7.21951V16H4.87805ZM9.26829 16V13.6H8.68293V11.2C8.68293 10.95 8.76829 10.7375 8.93902 10.5625C9.10976 10.3875 9.31707 10.3 9.56098 10.3H10.7317C10.9756 10.3 11.1829 10.3875 11.3537 10.5625C11.5244 10.7375 11.6098 10.95 11.6098 11.2V13.6H11.0244V16H9.26829Z" fill="#7EC081"/>
</g>
<defs>
<clipPath id="clip0_3375_31361">
<rect width="20" height="20" fill="white"/>
</clipPath>
</defs>
</svg>
