<svg width="20" height="20" viewBox="0 0 20 20" fill="none" xmlns="http://www.w3.org/2000/svg">
<g clip-path="url(#clip0_3375_31402)">
<path d="M16 0H4C1.79086 0 0 1.79086 0 4V16C0 18.2091 1.79086 20 4 20H16C18.2091 20 20 18.2091 20 16V4C20 1.79086 18.2091 0 16 0Z" fill="#F3FFF3"/>
<mask id="mask0_3375_31402" style="mask-type:alpha" maskUnits="userSpaceOnUse" x="4" y="3" width="12" height="13">
<rect x="4" y="3.60156" width="12" height="12" fill="#92B7FF"/>
</mask>
<g mask="url(#mask0_3375_31402)">
<path d="M10 10.6016C9.85833 10.6016 9.73958 10.5536 9.64375 10.4578C9.54792 10.362 9.5 10.2432 9.5 10.1016C9.5 9.9599 9.54792 9.84115 9.64375 9.74531C9.73958 9.64948 9.85833 9.60156 10 9.60156C10.1417 9.60156 10.2604 9.64948 10.3563 9.74531C10.4521 9.84115 10.5 9.9599 10.5 10.1016C10.5 10.2432 10.4521 10.362 10.3563 10.4578C10.2604 10.5536 10.1417 10.6016 10 10.6016ZM8 10.6016C7.85833 10.6016 7.73958 10.5536 7.64375 10.4578C7.54792 10.362 7.5 10.2432 7.5 10.1016C7.5 9.9599 7.54792 9.84115 7.64375 9.74531C7.73958 9.64948 7.85833 9.60156 8 9.60156C8.14167 9.60156 8.26042 9.64948 8.35625 9.74531C8.45208 9.84115 8.5 9.9599 8.5 10.1016C8.5 10.2432 8.45208 10.362 8.35625 10.4578C8.26042 10.5536 8.14167 10.6016 8 10.6016ZM12 10.6016C11.8583 10.6016 11.7396 10.5536 11.6438 10.4578C11.5479 10.362 11.5 10.2432 11.5 10.1016C11.5 9.9599 11.5479 9.84115 11.6438 9.74531C11.7396 9.64948 11.8583 9.60156 12 9.60156C12.1417 9.60156 12.2604 9.64948 12.3563 9.74531C12.4521 9.84115 12.5 9.9599 12.5 10.1016C12.5 10.2432 12.4521 10.362 12.3563 10.4578C12.2604 10.5536 12.1417 10.6016 12 10.6016ZM10 12.6016C9.85833 12.6016 9.73958 12.5536 9.64375 12.4578C9.54792 12.362 9.5 12.2432 9.5 12.1016C9.5 11.9599 9.54792 11.8411 9.64375 11.7453C9.73958 11.6495 9.85833 11.6016 10 11.6016C10.1417 11.6016 10.2604 11.6495 10.3563 11.7453C10.4521 11.8411 10.5 11.9599 10.5 12.1016C10.5 12.2432 10.4521 12.362 10.3563 12.4578C10.2604 12.5536 10.1417 12.6016 10 12.6016ZM8 12.6016C7.85833 12.6016 7.73958 12.5536 7.64375 12.4578C7.54792 12.362 7.5 12.2432 7.5 12.1016C7.5 11.9599 7.54792 11.8411 7.64375 11.7453C7.73958 11.6495 7.85833 11.6016 8 11.6016C8.14167 11.6016 8.26042 11.6495 8.35625 11.7453C8.45208 11.8411 8.5 11.9599 8.5 12.1016C8.5 12.2432 8.45208 12.362 8.35625 12.4578C8.26042 12.5536 8.14167 12.6016 8 12.6016ZM12 12.6016C11.8583 12.6016 11.7396 12.5536 11.6438 12.4578C11.5479 12.362 11.5 12.2432 11.5 12.1016C11.5 11.9599 11.5479 11.8411 11.6438 11.7453C11.7396 11.6495 11.8583 11.6016 12 11.6016C12.1417 11.6016 12.2604 11.6495 12.3563 11.7453C12.4521 11.8411 12.5 11.9599 12.5 12.1016C12.5 12.2432 12.4521 12.362 12.3563 12.4578C12.2604 12.5536 12.1417 12.6016 12 12.6016ZM6.5 14.6016C6.225 14.6016 5.98958 14.5036 5.79375 14.3078C5.59792 14.112 5.5 13.8766 5.5 13.6016V6.60156C5.5 6.32656 5.59792 6.09115 5.79375 5.89531C5.98958 5.69948 6.225 5.60156 6.5 5.60156H7V4.60156H8V5.60156H12V4.60156H13V5.60156H13.5C13.775 5.60156 14.0104 5.69948 14.2063 5.89531C14.4021 6.09115 14.5 6.32656 14.5 6.60156V13.6016C14.5 13.8766 14.4021 14.112 14.2063 14.3078C14.0104 14.5036 13.775 14.6016 13.5 14.6016H6.5ZM6.5 13.6016H13.5V8.60156H6.5V13.6016Z" fill="#7EC081"/>
</g>
</g>
<defs>
<clipPath id="clip0_3375_31402">
<rect width="20" height="20" fill="white"/>
</clipPath>
</defs>
</svg>
