<svg width="20" height="20" viewBox="0 0 20 20" fill="none" xmlns="http://www.w3.org/2000/svg">
<g clip-path="url(#clip0_3375_31460)">
<path d="M16 0H4C1.79086 0 0 1.79086 0 4V16C0 18.2091 1.79086 20 4 20H16C18.2091 20 20 18.2091 20 16V4C20 1.79086 18.2091 0 16 0Z" fill="#F3FFF3"/>
<mask id="mask0_3375_31460" style="mask-type:alpha" maskUnits="userSpaceOnUse" x="4" y="3" width="12" height="13">
<rect x="4" y="3.60156" width="12" height="12" fill="#92B7FF"/>
</mask>
<g mask="url(#mask0_3375_31460)">
<path d="M8 5.60156H12V4.60156H13V5.60156H13.5C13.775 5.60156 14.0102 5.69967 14.2061 5.89551C14.4019 6.09134 14.5 6.32656 14.5 6.60156V10.7998C14.1901 10.668 13.8537 10.6016 13.5 10.6016V8.60156H6.5V13.6016H11.0459C11.1149 13.9652 11.2642 14.3015 11.4893 14.6016H6.5C6.225 14.6016 5.98978 14.5035 5.79395 14.3076C5.59811 14.1118 5.5 13.8766 5.5 13.6016V6.60156C5.5 6.32656 5.59811 6.09134 5.79395 5.89551C5.98978 5.69967 6.225 5.60156 6.5 5.60156H7V4.60156H8V5.60156ZM8 11.6016C8.14167 11.6016 8.26061 11.6493 8.35645 11.7451C8.45228 11.841 8.5 11.9599 8.5 12.1016C8.5 12.2432 8.45228 12.3622 8.35645 12.458C8.26061 12.5538 8.14167 12.6016 8 12.6016C7.85833 12.6016 7.73939 12.5538 7.64355 12.458C7.54772 12.3622 7.5 12.2432 7.5 12.1016C7.5 11.9599 7.54772 11.841 7.64355 11.7451C7.73939 11.6493 7.85833 11.6016 8 11.6016ZM10 11.6016C10.1417 11.6016 10.2606 11.6493 10.3564 11.7451C10.4523 11.841 10.5 11.9599 10.5 12.1016C10.5 12.2432 10.4523 12.3622 10.3564 12.458C10.2606 12.5538 10.1417 12.6016 10 12.6016C9.85833 12.6016 9.73939 12.5538 9.64355 12.458C9.54772 12.3622 9.5 12.2432 9.5 12.1016C9.5 11.9599 9.54772 11.841 9.64355 11.7451C9.73939 11.6493 9.85833 11.6016 10 11.6016ZM12.0801 12.5938H12.0781C12.0834 12.5779 12.0899 12.5625 12.0957 12.5469C12.0899 12.5623 12.0853 12.5781 12.0801 12.5938ZM12.1621 12.3984C12.1817 12.3604 12.2034 12.3234 12.2266 12.2871C12.2033 12.3234 12.1817 12.3604 12.1621 12.3984ZM12.3301 12.1436C12.3008 12.1791 12.2735 12.2156 12.248 12.2529C12.2735 12.2156 12.3008 12.1791 12.3301 12.1436ZM8 9.60156C8.14167 9.60156 8.26061 9.64928 8.35645 9.74512C8.45228 9.84095 8.5 9.9599 8.5 10.1016C8.5 10.2432 8.45228 10.3622 8.35645 10.458C8.26061 10.5538 8.14167 10.6016 8 10.6016C7.85833 10.6016 7.73939 10.5538 7.64355 10.458C7.54772 10.3622 7.5 10.2432 7.5 10.1016C7.5 9.9599 7.54772 9.84095 7.64355 9.74512C7.73939 9.64928 7.85833 9.60156 8 9.60156ZM10 9.60156C10.1417 9.60156 10.2606 9.64928 10.3564 9.74512C10.4523 9.84095 10.5 9.9599 10.5 10.1016C10.5 10.2432 10.4523 10.3622 10.3564 10.458C10.2606 10.5538 10.1417 10.6016 10 10.6016C9.85833 10.6016 9.73939 10.5538 9.64355 10.458C9.54772 10.3622 9.5 10.2432 9.5 10.1016C9.5 9.9599 9.54772 9.84095 9.64355 9.74512C9.73939 9.64928 9.85833 9.60156 10 9.60156ZM12 9.60156C12.1417 9.60156 12.2606 9.64928 12.3564 9.74512C12.4523 9.84095 12.5 9.9599 12.5 10.1016C12.5 10.2432 12.4523 10.3622 12.3564 10.458C12.2606 10.5538 12.1417 10.6016 12 10.6016C11.8583 10.6016 11.7394 10.5538 11.6436 10.458C11.5477 10.3622 11.5 10.2432 11.5 10.1016C11.5 9.9599 11.5477 9.84095 11.6436 9.74512C11.7394 9.64928 11.8583 9.60156 12 9.60156ZM12.1172 12.4941C12.1309 12.4616 12.1459 12.4298 12.1621 12.3984C12.1459 12.4298 12.1309 12.4616 12.1172 12.4941Z" fill="#7EC081"/>
<path d="M12.4313 14.1703C12.7188 14.4578 13.075 14.6016 13.5 14.6016C13.925 14.6016 14.2813 14.4578 14.5688 14.1703C14.8563 13.8828 15 13.5266 15 13.1016C15 12.6766 14.8563 12.3203 14.5688 12.0328C14.2813 11.7453 13.925 11.6016 13.5 11.6016C13.075 11.6016 12.7188 11.7453 12.4313 12.0328C12.1438 12.3203 12 12.6766 12 13.1016C12 13.5266 12.1438 13.8828 12.4313 14.1703Z" fill="#7EC081"/>
</g>
</g>
<defs>
<clipPath id="clip0_3375_31460">
<rect width="20" height="20" fill="white"/>
</clipPath>
</defs>
</svg>
