<svg width="18" height="18" viewBox="0 0 18 18" fill="none" xmlns="http://www.w3.org/2000/svg">
<path d="M14.25 6.2249C14.1875 6.2249 14.122 6.20615 14.0535 6.16865C13.9845 6.13115 13.9375 6.0749 13.9125 5.9999L13.3125 4.6874L12 4.0874C11.925 4.0624 11.8687 4.0154 11.8312 3.9464C11.7937 3.8779 11.775 3.8124 11.775 3.7499C11.775 3.6874 11.7937 3.62165 11.8312 3.55265C11.8687 3.48415 11.925 3.4374 12 3.4124L13.3125 2.8124L13.9125 1.4999C13.9375 1.4249 13.9845 1.36865 14.0535 1.33115C14.122 1.29365 14.1875 1.2749 14.25 1.2749C14.3125 1.2749 14.3782 1.29365 14.4472 1.33115C14.5157 1.36865 14.5625 1.4249 14.5875 1.4999L15.1875 2.8124L16.5 3.4124C16.575 3.4374 16.6312 3.48415 16.6687 3.55265C16.7062 3.62165 16.725 3.6874 16.725 3.7499C16.725 3.8124 16.7062 3.8779 16.6687 3.9464C16.6312 4.0154 16.575 4.0624 16.5 4.0874L15.1875 4.6874L14.5875 5.9999C14.5625 6.0749 14.5157 6.13115 14.4472 6.16865C14.3782 6.20615 14.3125 6.2249 14.25 6.2249ZM14.25 16.7249C14.1875 16.7249 14.122 16.7062 14.0535 16.6687C13.9845 16.6312 13.9375 16.5749 13.9125 16.4999L13.3125 15.1874L12 14.5874C11.925 14.5624 11.8687 14.5154 11.8312 14.4464C11.7937 14.3779 11.775 14.3124 11.775 14.2499C11.775 14.1874 11.7937 14.1219 11.8312 14.0534C11.8687 13.9844 11.925 13.9374 12 13.9124L13.3125 13.3124L13.9125 11.9999C13.9375 11.9249 13.9845 11.8687 14.0535 11.8312C14.122 11.7937 14.1875 11.7749 14.25 11.7749C14.3125 11.7749 14.3782 11.7937 14.4472 11.8312C14.5157 11.8687 14.5625 11.9249 14.5875 11.9999L15.1875 13.3124L16.5 13.9124C16.575 13.9374 16.6312 13.9844 16.6687 14.0534C16.7062 14.1219 16.725 14.1874 16.725 14.2499C16.725 14.3124 16.7062 14.3779 16.6687 14.4464C16.6312 14.5154 16.575 14.5624 16.5 14.5874L15.1875 15.1874L14.5875 16.4999C14.5625 16.5749 14.5157 16.6312 14.4472 16.6687C14.3782 16.7062 14.3125 16.7249 14.25 16.7249ZM6.75 13.9312C6.6125 13.9312 6.48125 13.8937 6.35625 13.8187C6.23125 13.7437 6.1375 13.6374 6.075 13.4999L4.875 10.8749L2.25 9.6749C2.1125 9.6124 2.00625 9.51865 1.93125 9.39365C1.85625 9.26865 1.81875 9.1374 1.81875 8.9999C1.81875 8.8624 1.85625 8.73115 1.93125 8.60615C2.00625 8.48115 2.1125 8.3874 2.25 8.3249L4.875 7.1249L6.075 4.4999C6.1375 4.3624 6.23125 4.25615 6.35625 4.18115C6.48125 4.10615 6.6125 4.06865 6.75 4.06865C6.8875 4.06865 7.01875 4.10615 7.14375 4.18115C7.26875 4.25615 7.3625 4.3624 7.425 4.4999L8.625 7.1249L11.25 8.3249C11.3875 8.3874 11.4937 8.48115 11.5687 8.60615C11.6437 8.73115 11.6812 8.8624 11.6812 8.9999C11.6812 9.1374 11.6437 9.26865 11.5687 9.39365C11.4937 9.51865 11.3875 9.6124 11.25 9.6749L8.625 10.8749L7.425 13.4999C7.3625 13.6374 7.26875 13.7437 7.14375 13.8187C7.01875 13.8937 6.8875 13.9312 6.75 13.9312Z" fill="#1F7022"/>
</svg>
