<svg width="20" height="20" viewBox="0 0 20 20" fill="none" xmlns="http://www.w3.org/2000/svg">
<g clip-path="url(#clip0_3375_31517)">
<path d="M16 0H4C1.79086 0 0 1.79086 0 4V16C0 18.2091 1.79086 20 4 20H16C18.2091 20 20 18.2091 20 16V4C20 1.79086 18.2091 0 16 0Z" fill="#F3FFF3"/>
<path d="M10.5 15.6016C9.73709 15.6016 9.0225 15.4565 8.35622 15.1664C7.68995 14.8764 7.11013 14.4845 6.61678 13.9909C6.12344 13.4972 5.73181 12.9171 5.4419 12.2504C5.152 11.5838 5.00704 10.8687 5.00704 10.1054C5.00704 9.34202 5.152 8.62701 5.4419 7.96034C5.73181 7.29367 6.12344 6.71352 6.61678 6.21988C7.11013 5.72624 7.68995 5.33439 8.35622 5.04431C9.0225 4.75423 9.73709 4.6092 10.5 4.6092C11.2629 4.6092 11.9775 4.75423 12.6438 5.04431C13.3101 5.33439 13.8899 5.72624 14.3832 6.21988C14.8766 6.71352 15.2682 7.29367 15.5581 7.96034C15.848 8.62701 15.993 9.34202 15.993 10.1054C15.993 10.8687 15.848 11.5838 15.5581 12.2504C15.2682 12.9171 14.8766 13.4972 14.3832 13.9909C13.8899 14.4845 13.3101 14.8764 12.6438 15.1664C11.9775 15.4565 11.2629 15.6016 10.5 15.6016ZM12.2089 12.6703L13.0634 11.8153L11.1103 9.8611V7.05194H9.88967V10.3497L12.2089 12.6703ZM6.5939 3.60156L7.44836 4.45652L4.85446 7.05194L4 6.19698L6.5939 3.60156ZM14.4061 3.60156L17 6.19698L16.1455 7.05194L13.5516 4.45652L14.4061 3.60156Z" fill="#7EC081"/>
</g>
<defs>
<clipPath id="clip0_3375_31517">
<rect width="20" height="20" fill="white"/>
</clipPath>
</defs>
</svg>
