<svg width="14" height="14" viewBox="0 0 14 14" fill="none" xmlns="http://www.w3.org/2000/svg">
<g clip-path="url(#clip0_3375_30829)">
<path d="M4.08333 11.6667H6.41667C6.41667 12.3083 5.89167 12.8333 5.25 12.8333C4.60833 12.8333 4.08333 12.3083 4.08333 11.6667ZM2.91667 10.5C2.91667 10.8208 3.17917 11.0833 3.5 11.0833H7C7.32083 11.0833 7.58333 10.8208 7.58333 10.5C7.58333 10.1792 7.32083 9.91667 7 9.91667H3.5C3.17917 9.91667 2.91667 10.1792 2.91667 10.5ZM9.625 5.54167C9.625 7.77 8.07333 8.96 7.42583 9.33333H3.07417C2.42667 8.96 0.875 7.77 0.875 5.54167C0.875 3.12667 2.835 1.16667 5.25 1.16667C7.665 1.16667 9.625 3.12667 9.625 5.54167ZM12.4658 4.29917L11.6667 4.66667L12.4658 5.03417L12.8333 5.83333L13.2008 5.03417L14 4.66667L13.2008 4.29917L12.8333 3.5L12.4658 4.29917ZM11.0833 3.5L11.6317 2.29833L12.8333 1.75L11.6317 1.20167L11.0833 0L10.535 1.20167L9.33333 1.75L10.535 2.29833L11.0833 3.5Z" fill="#1F7022"/>
</g>
<defs>
<clipPath id="clip0_3375_30829">
<rect width="14" height="14" fill="white"/>
</clipPath>
</defs>
</svg>
